<?xml version="1.0" encoding="UTF-8"?>
<svg width="64px" height="64px" viewBox="0 0 64 64" version="1.1" xmlns="http://www.w3.org/2000/svg" xmlns:xlink="http://www.w3.org/1999/xlink">
    <title>ai-readiness-icon</title>
    <g id="ai-readiness-icon" stroke="none" stroke-width="1" fill="none" fill-rule="evenodd">
        <rect id="bg" fill="#6A4C93" x="8" y="8" width="48" height="48" rx="4"></rect>
        <circle id="brain-outline" stroke="#FFFFFF" stroke-width="2" cx="32" cy="32" r="16"></circle>
        <path d="M26,24 C26,24 28,20 32,20 C36,20 38,24 38,24" id="top-curve" stroke="#FFFFFF" stroke-width="2" stroke-linecap="round"></path>
        <path d="M26,40 C26,40 28,44 32,44 C36,44 38,40 38,40" id="bottom-curve" stroke="#FFFFFF" stroke-width="2" stroke-linecap="round"></path>
        <path d="M24,28 L40,28" id="line1" stroke="#FFFFFF" stroke-width="2" stroke-linecap="round"></path>
        <path d="M24,32 L40,32" id="line2" stroke="#FFFFFF" stroke-width="2" stroke-linecap="round"></path>
        <path d="M24,36 L40,36" id="line3" stroke="#FFFFFF" stroke-width="2" stroke-linecap="round"></path>
        <circle id="node1" fill="#FFFFFF" cx="24" cy="28" r="2"></circle>
        <circle id="node2" fill="#FFFFFF" cx="40" cy="28" r="2"></circle>
        <circle id="node3" fill="#FFFFFF" cx="24" cy="32" r="2"></circle>
        <circle id="node4" fill="#FFFFFF" cx="40" cy="32" r="2"></circle>
        <circle id="node5" fill="#FFFFFF" cx="24" cy="36" r="2"></circle>
        <circle id="node6" fill="#FFFFFF" cx="40" cy="36" r="2"></circle>
    </g>
</svg>
