<?xml version="1.0" encoding="UTF-8"?>
<svg width="64px" height="64px" viewBox="0 0 64 64" version="1.1" xmlns="http://www.w3.org/2000/svg" xmlns:xlink="http://www.w3.org/1999/xlink">
    <title>cloud-icon</title>
    <g id="cloud-icon" stroke="none" stroke-width="1" fill="none" fill-rule="evenodd">
        <path d="M52,38.5 C52,44.851 46.851,50 40.5,50 L16,50 C9.373,50 4,44.627 4,38 C4,31.373 9.373,26 16,26 C16.385,26 16.765,26.018 17.14,26.053 C19.229,18.427 26.095,13 34,13 C43.389,13 51,20.611 51,30 C51,30.858 50.93,31.698 50.796,32.518 C51.55,33.418 52,34.609 52,35.9 L52,38.5 Z" id="cloud" stroke="#4ECDC4" stroke-width="2" fill="#4ECDC4" fill-rule="nonzero"></path>
        <path d="M46,30 L46,34 M46,38 L46,42 M42,34 L50,34 M42,38 L50,38" id="plus" stroke="#FFFFFF" stroke-width="2" stroke-linecap="round"></path>
    </g>
</svg>
